<svg xmlns="http://www.w3.org/2000/svg" viewBox="0 0 302.52 302.8" fill="#f5f5f5"><g id="Layer_2" data-name="Layer 2"><g id="Layer_1-2" data-name="Layer 1"><path d="M171.51,15.08a16.06,16.06,0,0,1-2.19,8,11.51,11.51,0,0,1-5.49,4.61,19.46,19.46,0,0,1-8.41,1.25l-8-.38L148.72,0l8.89.41a17.56,17.56,0,0,1,7.67,2,11.41,11.41,0,0,1,4.81,4.94A15.23,15.23,0,0,1,171.51,15.08Zm-5-.1a12.93,12.93,0,0,0-.85-5.81,7.17,7.17,0,0,0-3.12-3.52,11.67,11.67,0,0,0-5.25-1.34l-4.05-.19-1,20.7,3.36.16q5.2.24,7.92-2.27C165.41,21,166.39,18.46,166.55,15Z"/><path d="M205.07,9.1l-5,17.79a11.16,11.16,0,0,1-2.67,4.81,9.16,9.16,0,0,1-4.71,2.57,13.63,13.63,0,0,1-6.6-.42q-5.35-1.49-7.37-5.05a10.29,10.29,0,0,1-.74-8.16l5-17.72,4.59,1.28-4.84,17.32q-1,3.45.22,5.54a6.9,6.9,0,0,0,4.43,3,7.83,7.83,0,0,0,3.87.23A4.92,4.92,0,0,0,194,28.6a9.16,9.16,0,0,0,1.71-3.47l4.84-17.3Z"/><path d="M223.37,17.59a18.27,18.27,0,0,1,5,3.69,7.09,7.09,0,0,1,1.93,4.13,8.28,8.28,0,0,1-1.11,4.67,7.62,7.62,0,0,1-2.38,2.81,7.41,7.41,0,0,1-3,1.22,11.49,11.49,0,0,1-3.15.08l1.35,15-4.74-2.5-.85-13.37-4.09-2.16L207,41.26,202.85,39,216.19,13.8Zm-2.11,3.33-2.71-1.44-4.35,8.24,2.9,1.53a7.49,7.49,0,0,0,4.78,1.16,4.27,4.27,0,0,0,3-2.46,3.83,3.83,0,0,0,.23-3.83A9.1,9.1,0,0,0,221.26,20.92Z"/><path d="M238.12,62.38,241,54.46l-8.55-7-7.21,4.34-3.87-3.17,26.5-15.35,4.07,3.34-9.89,29Zm4.43-11.79,2.84-7.8c.14-.33.32-.79.56-1.39s.48-1.21.74-1.84.48-1.16.66-1.58c-.44.33-.95.68-1.51,1.07s-1.1.75-1.61,1.08l-1.15.77L236,45.2Z"/><path d="M265.71,49.68l5.4,6.69c2.34,2.9,3.7,5.42,4.06,7.57s-.48,4-2.53,5.7A7.21,7.21,0,0,1,270,71a5.53,5.53,0,0,1-2.74,0,6.33,6.33,0,0,1-2.6-1.4l-.16.12a9,9,0,0,1,1.08,3,5.28,5.28,0,0,1-.35,3,7.33,7.33,0,0,1-2.32,2.85,7.58,7.58,0,0,1-4.25,1.82,7.79,7.79,0,0,1-4.42-1A14.64,14.64,0,0,1,250,75.69l-6.52-8.07Zm-9.15,13.48-7,5.68,3.14,3.89c1.38,1.72,2.69,2.66,3.91,2.82a4.52,4.52,0,0,0,3.52-1.11,4.42,4.42,0,0,0,1.42-1.91,3.89,3.89,0,0,0-.06-2.47,10.45,10.45,0,0,0-1.9-3.19Zm3-2.39,2.86,3.53q2,2.52,3.61,2.82a3.7,3.7,0,0,0,3.12-.93,3.17,3.17,0,0,0,1.36-3A9.4,9.4,0,0,0,268.23,59l-2.58-3.2Z"/><path d="M258.83,87.9,284,74.43l2.24,4.19L264.58,90.2,270.37,101l-3.51,1.88Z"/><path d="M273.28,122.07l-5.1-15.55,27.14-8.89,5.09,15.56-3.74,1.22-3.62-11-7.37,2.41,3.39,10.35-3.73,1.22L282,107l-8.52,2.79,3.62,11Z"/><path d="M291.3,205.22a8.78,8.78,0,0,0,.59-3.73,7.46,7.46,0,0,0-1.06-3.33,9.94,9.94,0,0,0-2.58-2.79,15.72,15.72,0,0,0-4-2.11,15.45,15.45,0,0,0-5.67-1.08,7.57,7.57,0,0,0-4.44,1.43,8.64,8.64,0,0,0-2.9,4.13,18.1,18.1,0,0,0-.92,3.5A32.47,32.47,0,0,0,270,205l-3.74-1.39a18,18,0,0,1,.31-3.68,24.62,24.62,0,0,1,1.14-4A13.77,13.77,0,0,1,272,189.6a11.05,11.05,0,0,1,6.31-2.29,19.32,19.32,0,0,1,7.75,1.35,18.71,18.71,0,0,1,5.24,2.9,13.11,13.11,0,0,1,3.44,4.1,11.82,11.82,0,0,1,1.36,5.09,15,15,0,0,1-1,5.88,19.14,19.14,0,0,1-1.94,3.83,18.94,18.94,0,0,1-2.63,3.2l-3-2.9a26.29,26.29,0,0,0,2.23-2.54A11.56,11.56,0,0,0,291.3,205.22Z"/><path d="M254.53,221.62l8.45-14,24.45,14.76-8.45,14-3.38-2,6-10-6.63-4-5.63,9.32-3.36-2,5.62-9.32-7.67-4.63-6,9.95Z"/><path d="M267.44,250.75a18.14,18.14,0,0,1-4.79,4,7.15,7.15,0,0,1-4.47.88,8.36,8.36,0,0,1-4.27-2.21,7.58,7.58,0,0,1-2.15-3,7.21,7.21,0,0,1-.46-3.19,10.94,10.94,0,0,1,.68-3.08l-14.89-2.31,3.57-4,13.18,2.4,3.09-3.45-8.52-7.62,3.16-3.53,21.29,19Zm-2.71-2.86,2-2.28-6.95-6.21-2.18,2.45q-2.19,2.44-2.28,4.36a4.33,4.33,0,0,0,1.67,3.5,3.85,3.85,0,0,0,3.66,1.14A9.13,9.13,0,0,0,264.73,247.89Z"/><path d="M220.42,254.24l7,4.67,8.86-6.6-2.47-8.05,4-3,8.51,29.41-4.22,3.15-25.74-16.58Zm10.38,7.15,6.89,4.64,1.21.87,1.61,1.17,1.38,1c-.22-.51-.44-1.08-.68-1.72s-.46-1.25-.67-1.82-.35-1-.46-1.3l-2.46-7.94Z"/><path d="M203,263.35l16.87,18.78.16-.07-1-1.95c-.41-.83-.83-1.73-1.28-2.69s-.85-1.88-1.21-2.76l-6-14.45,4-1.67,11,26.35-6.15,2.57-16.17-17.94-.11,0,1.16,24.22-6.15,2.57-11-26.35,4.17-1.75,6.13,14.67c.34.81.69,1.68,1.05,2.62s.71,1.84,1,2.7.56,1.55.73,2.07l.16-.07L199.12,265Z"/><path d="M180.64,270.76l5.85,27.95-4.65,1L176,271.73Z"/><path d="M158.77,298.79a8.76,8.76,0,0,0,3.65-1A7.46,7.46,0,0,0,165,295.5a10,10,0,0,0,1.5-3.49,15.39,15.39,0,0,0,.32-4.49,15.55,15.55,0,0,0-1.31-5.63,7.57,7.57,0,0,0-3.11-3.48,8.61,8.61,0,0,0-4.95-1,18.74,18.74,0,0,0-3.57.57,33.22,33.22,0,0,0-3.53,1.18l-.25-4a18.33,18.33,0,0,1,3.49-1.22,25,25,0,0,1,4.12-.57,13.67,13.67,0,0,1,7.47,1.35,11.06,11.06,0,0,1,4.65,4.84,19.38,19.38,0,0,1,1.9,7.63,18.62,18.62,0,0,1-.52,6,13.23,13.23,0,0,1-2.36,4.8,11.92,11.92,0,0,1-4.1,3.31,14.86,14.86,0,0,1-5.79,1.43,19.42,19.42,0,0,1-8.29-1.32l1.42-4a26.84,26.84,0,0,0,3.22,1A11.23,11.23,0,0,0,158.77,298.79Z"/><path d="M73.64,256.18a7.63,7.63,0,0,1,3.4-3,8,8,0,0,1,4.55-.45,14.67,14.67,0,0,1,5.24,2.16,26.81,26.81,0,0,1,2.46,1.77,18.43,18.43,0,0,1,2,1.89,14.82,14.82,0,0,1,1.54,2l-2.36,3.73a31.15,31.15,0,0,0-2.61-3.28A16,16,0,0,0,84.47,258a8.3,8.3,0,0,0-2.83-1.23,3.85,3.85,0,0,0-2.26.19,3.66,3.66,0,0,0-1.62,1.44,3.32,3.32,0,0,0-.56,2.17,6.54,6.54,0,0,0,.9,2.48,34.15,34.15,0,0,0,2.12,3.21,20.71,20.71,0,0,1,1.61,2.53,11.26,11.26,0,0,1,1,2.66,7.4,7.4,0,0,1,.11,2.82,7.79,7.79,0,0,1-1.18,3,7.22,7.22,0,0,1-3.23,2.88,7.48,7.48,0,0,1-4.23.45,12.56,12.56,0,0,1-4.72-1.91A18.19,18.19,0,0,1,66.25,276a24.13,24.13,0,0,1-2.63-3.22l3.3-2.4a28.47,28.47,0,0,0,2.3,2.83,13.26,13.26,0,0,0,2.64,2.19,6.34,6.34,0,0,0,2.39,1,3.51,3.51,0,0,0,2-.23,3.4,3.4,0,0,0,1.48-1.32,3.48,3.48,0,0,0,.6-2.12,5.74,5.74,0,0,0-.81-2.34c-.49-.86-1.17-1.91-2-3.13a25.13,25.13,0,0,1-2.34-3.91,8,8,0,0,1-.79-3.54A7.26,7.26,0,0,1,73.64,256.18Z"/><path d="M74.36,246.77,55.25,268l-3.52-3.17,16.44-18.26-9.12-8.22,2.66-3Z"/><path d="M49.08,219.55,59.2,232.42,36.76,250.08,26.64,237.21l3.1-2.44,7.19,9.14,6.09-4.8-6.73-8.56,3.08-2.43,6.74,8.56,7-5.54L46,222Z"/><path d="M38.67,200.83l7.74,14.43L21.24,228.75l-7.73-14.43L17,212.46l5.49,10.24L29.31,219l-5.15-9.6,3.46-1.86,5.15,9.61,7.9-4.24L35.18,202.7Z"/><path d="M30.15,175.2l1.63,5.23L22.1,192.85l3,2,10.18-3.18,1.41,4.53L9.46,204.75l-1.41-4.53,13-4.07c-.84-.34-1.69-.69-2.53-1.05L16,194,4.57,189.09,3,184l15.17,6.58Z"/><path d="M13.77,139.66a16.22,16.22,0,0,1,8.08,1.69,11.47,11.47,0,0,1,4.95,5.19,19.33,19.33,0,0,1,1.77,8.32l.13,8-28.55.47L0,154.46a17.45,17.45,0,0,1,1.47-7.78,11.42,11.42,0,0,1,4.62-5.12A15.36,15.36,0,0,1,13.77,139.66Zm.21,5a13.11,13.11,0,0,0-5.75,1.21,7.19,7.19,0,0,0-3.31,3.34,11.65,11.65,0,0,0-1,5.32l.07,4,20.72-.34-.06-3.36c-.06-3.48-1-6.06-2.76-7.76S17.46,144.56,14,144.62Z"/><path d="M32.69,118.56l-3.25,16-28-5.66,3.25-16,3.87.79L6.26,125.07l7.6,1.54L16,115.93l3.85.78-2.16,10.68,8.78,1.77,2.31-11.39Z"/><path d="M33.15,95.36a7.63,7.63,0,0,1,3.61,2.78,7.9,7.9,0,0,1,1.29,4.38,14.56,14.56,0,0,1-1.14,5.55,25.92,25.92,0,0,1-1.27,2.75,21.83,21.83,0,0,1-1.48,2.34A15.28,15.28,0,0,1,32.53,115l-4.11-1.62a30.82,30.82,0,0,0,2.73-3.17,16.1,16.1,0,0,0,2.2-3.89,8.38,8.38,0,0,0,.67-3,3.76,3.76,0,0,0-.61-2.19,3.57,3.57,0,0,0-1.71-1.32,3.3,3.3,0,0,0-2.24-.14A6.44,6.44,0,0,0,27.19,101a34.65,34.65,0,0,0-2.76,2.68,19.9,19.9,0,0,1-2.17,2,10.84,10.84,0,0,1-2.42,1.51,7.29,7.29,0,0,1-2.75.64,7.73,7.73,0,0,1-3.15-.6,7.18,7.18,0,0,1-3.42-2.63,7.49,7.49,0,0,1-1.24-4.07,12.59,12.59,0,0,1,1-5,18.09,18.09,0,0,1,2-3.81A24.27,24.27,0,0,1,15,88.63l3,2.79a30,30,0,0,0-2.35,2.79,13.28,13.28,0,0,0-1.66,3,6.47,6.47,0,0,0-.52,2.54,3.47,3.47,0,0,0,.6,2,3.33,3.33,0,0,0,1.58,1.2,3.46,3.46,0,0,0,2.19.2,5.69,5.69,0,0,0,2.15-1.24q1.13-1,2.7-2.58a25.28,25.28,0,0,1,3.39-3,7.73,7.73,0,0,1,3.33-1.44A7.16,7.16,0,0,1,33.15,95.36Z"/><path d="M42.81,94.19l-24.9-14,2.32-4.13,24.91,14Z"/><path d="M43.34,65.47,50.05,57,61.27,66a33.3,33.3,0,0,1-2,4.39,33,33,0,0,1-3.09,4.53,14.92,14.92,0,0,1-6,4.76,11.25,11.25,0,0,1-6.8.5,18.25,18.25,0,0,1-7.21-3.72,16.21,16.21,0,0,1-5-6.21A12.22,12.22,0,0,1,30.39,63,17.06,17.06,0,0,1,34,55.54a21.62,21.62,0,0,1,3.21-3.27,22.21,22.21,0,0,1,3.5-2.39l2,3.73a20.17,20.17,0,0,0-2.93,1.85,15.14,15.14,0,0,0-2.71,2.66,10.32,10.32,0,0,0-2.29,5,8.77,8.77,0,0,0,.77,5,12.44,12.44,0,0,0,3.69,4.48,14.66,14.66,0,0,0,5,2.72,7.75,7.75,0,0,0,4.81,0A9.65,9.65,0,0,0,53.43,72,20.21,20.21,0,0,0,55,69.68c.39-.68.73-1.31,1-1.91L50.29,63.2,46.49,68Z"/><path d="M85,47.94l-4.59,3.6L55.2,42.33l-.14.11,1.63,1.84c.57.66,1.15,1.33,1.74,2s1.18,1.4,1.77,2.11l9.21,11.74L66,62.82,48.4,40.35,53,36.78l25.09,9.09.11-.08-1.49-1.74-1.73-2c-.59-.71-1.16-1.39-1.7-2.06L64,28.14l3.41-2.67Z"/><circle cx="289.52" cy="155.9" r="13"/><circle cx="114.52" cy="281.9" r="13"/><circle cx="107.52" cy="20.9" r="13"/></g></g></svg>